<mxfile host="app.diagrams.net" modified="2022-04-27T08:14:57.310Z" agent="5.0 (Macintosh; Intel Mac OS X 10_15_7) AppleWebKit/537.36 (KHTML, like Gecko) Chrome/98.0.4758.102 Safari/537.36" etag="FUp6gKKa1kQH0zAKVVXL" version="17.4.6" type="github">
  <diagram id="C5RBs43oDa-KdzZeNtuy" name="Page-1">
    <mxGraphModel dx="1131" dy="744" grid="1" gridSize="10" guides="1" tooltips="1" connect="1" arrows="1" fold="1" page="1" pageScale="1" pageWidth="827" pageHeight="1169" math="0" shadow="0">
      <root>
        <mxCell id="WIyWlLk6GJQsqaUBKTNV-0" />
        <mxCell id="WIyWlLk6GJQsqaUBKTNV-1" parent="WIyWlLk6GJQsqaUBKTNV-0" />
        <mxCell id="WIyWlLk6GJQsqaUBKTNV-2" value="" style="rounded=0;html=1;jettySize=auto;orthogonalLoop=1;fontSize=11;endArrow=block;endFill=0;endSize=8;strokeWidth=1;shadow=0;labelBackgroundColor=none;edgeStyle=orthogonalEdgeStyle;" parent="WIyWlLk6GJQsqaUBKTNV-1" source="WIyWlLk6GJQsqaUBKTNV-3" target="WIyWlLk6GJQsqaUBKTNV-6" edge="1">
          <mxGeometry relative="1" as="geometry" />
        </mxCell>
        <mxCell id="WIyWlLk6GJQsqaUBKTNV-3" value="Asset Owner" style="rounded=1;whiteSpace=wrap;html=1;fontSize=12;glass=0;strokeWidth=1;shadow=0;" parent="WIyWlLk6GJQsqaUBKTNV-1" vertex="1">
          <mxGeometry x="170" y="100" width="120" height="40" as="geometry" />
        </mxCell>
        <mxCell id="WIyWlLk6GJQsqaUBKTNV-6" value="Create NFT Vault" style="rhombus;whiteSpace=wrap;html=1;shadow=0;fontFamily=Helvetica;fontSize=12;align=center;strokeWidth=1;spacing=6;spacingTop=-4;" parent="WIyWlLk6GJQsqaUBKTNV-1" vertex="1">
          <mxGeometry x="180" y="280" width="100" height="80" as="geometry" />
        </mxCell>
        <mxCell id="x0MqajVazXIa3QFRcniY-1" value="" style="edgeStyle=orthogonalEdgeStyle;startArrow=none;endArrow=none;rounded=0;targetPortConstraint=eastwest;sourcePortConstraint=northsouth;exitX=1;exitY=0.5;exitDx=0;exitDy=0;" edge="1" target="x0MqajVazXIa3QFRcniY-3" parent="WIyWlLk6GJQsqaUBKTNV-1" source="WIyWlLk6GJQsqaUBKTNV-3">
          <mxGeometry relative="1" as="geometry">
            <mxPoint x="370" y="290" as="sourcePoint" />
          </mxGeometry>
        </mxCell>
        <mxCell id="x0MqajVazXIa3QFRcniY-3" value="Sub Section" style="whiteSpace=wrap;html=1;align=center;verticalAlign=middle;treeFolding=1;treeMoving=1;" vertex="1" parent="WIyWlLk6GJQsqaUBKTNV-1">
          <mxGeometry x="490" y="190" width="100" height="60" as="geometry" />
        </mxCell>
        <mxCell id="x0MqajVazXIa3QFRcniY-4" value="" style="whiteSpace=wrap;html=1;align=center;verticalAlign=middle;treeFolding=1;treeMoving=1;" vertex="1" parent="WIyWlLk6GJQsqaUBKTNV-1">
          <mxGeometry x="500" y="200" width="100" height="60" as="geometry" />
        </mxCell>
        <mxCell id="x0MqajVazXIa3QFRcniY-5" value="Asset divided into Multiple NFTS" style="whiteSpace=wrap;html=1;align=center;verticalAlign=middle;treeFolding=1;treeMoving=1;" vertex="1" parent="WIyWlLk6GJQsqaUBKTNV-1">
          <mxGeometry x="510" y="210" width="100" height="60" as="geometry" />
        </mxCell>
        <mxCell id="x0MqajVazXIa3QFRcniY-6" value="" style="endArrow=block;html=1;rounded=0;entryX=1;entryY=0.5;entryDx=0;entryDy=0;exitX=0.5;exitY=1;exitDx=0;exitDy=0;endFill=0;" edge="1" parent="WIyWlLk6GJQsqaUBKTNV-1" source="x0MqajVazXIa3QFRcniY-5" target="WIyWlLk6GJQsqaUBKTNV-6">
          <mxGeometry width="50" height="50" relative="1" as="geometry">
            <mxPoint x="340" y="400" as="sourcePoint" />
            <mxPoint x="390" y="350" as="targetPoint" />
            <Array as="points">
              <mxPoint x="560" y="320" />
            </Array>
          </mxGeometry>
        </mxCell>
        <mxCell id="x0MqajVazXIa3QFRcniY-7" value="ONBOARDING" style="text;strokeColor=#6c8ebf;fillColor=#dae8fc;html=1;fontSize=24;fontStyle=1;verticalAlign=middle;align=center;" vertex="1" parent="WIyWlLk6GJQsqaUBKTNV-1">
          <mxGeometry x="40" y="50" width="230" height="40" as="geometry" />
        </mxCell>
        <mxCell id="x0MqajVazXIa3QFRcniY-41" style="edgeStyle=orthogonalEdgeStyle;rounded=0;orthogonalLoop=1;jettySize=auto;html=1;exitX=1;exitY=0.5;exitDx=0;exitDy=0;entryX=0;entryY=0.5;entryDx=0;entryDy=0;endArrow=block;endFill=0;" edge="1" parent="WIyWlLk6GJQsqaUBKTNV-1" source="x0MqajVazXIa3QFRcniY-8" target="x0MqajVazXIa3QFRcniY-39">
          <mxGeometry relative="1" as="geometry" />
        </mxCell>
        <UserObject label="Owner Defined" placeholders="1" name="Variable" id="x0MqajVazXIa3QFRcniY-8">
          <mxCell style="text;html=1;strokeColor=none;fillColor=none;align=center;verticalAlign=middle;whiteSpace=wrap;overflow=hidden;" vertex="1" parent="WIyWlLk6GJQsqaUBKTNV-1">
            <mxGeometry x="330" y="90" width="120" height="40" as="geometry" />
          </mxCell>
        </UserObject>
        <UserObject label="ERC-1155" placeholders="1" name="Variable" id="x0MqajVazXIa3QFRcniY-9">
          <mxCell style="text;html=1;strokeColor=none;fillColor=none;align=center;verticalAlign=middle;whiteSpace=wrap;overflow=hidden;" vertex="1" parent="WIyWlLk6GJQsqaUBKTNV-1">
            <mxGeometry x="190" y="200" width="80" height="40" as="geometry" />
          </mxCell>
        </UserObject>
        <mxCell id="x0MqajVazXIa3QFRcniY-12" value="PURCHASING" style="text;strokeColor=#82b366;fillColor=#d5e8d4;html=1;fontSize=24;fontStyle=1;verticalAlign=middle;align=center;" vertex="1" parent="WIyWlLk6GJQsqaUBKTNV-1">
          <mxGeometry x="260" y="350" width="230" height="40" as="geometry" />
        </mxCell>
        <mxCell id="x0MqajVazXIa3QFRcniY-13" value="" style="endArrow=classic;html=1;rounded=0;exitX=0.5;exitY=1;exitDx=0;exitDy=0;" edge="1" parent="WIyWlLk6GJQsqaUBKTNV-1" source="WIyWlLk6GJQsqaUBKTNV-6">
          <mxGeometry width="50" height="50" relative="1" as="geometry">
            <mxPoint x="340" y="350" as="sourcePoint" />
            <mxPoint x="230" y="410" as="targetPoint" />
          </mxGeometry>
        </mxCell>
        <mxCell id="x0MqajVazXIa3QFRcniY-48" value="" style="edgeStyle=orthogonalEdgeStyle;rounded=0;orthogonalLoop=1;jettySize=auto;html=1;endArrow=block;endFill=0;" edge="1" parent="WIyWlLk6GJQsqaUBKTNV-1" source="x0MqajVazXIa3QFRcniY-14" target="x0MqajVazXIa3QFRcniY-44">
          <mxGeometry relative="1" as="geometry" />
        </mxCell>
        <mxCell id="x0MqajVazXIa3QFRcniY-14" value="Fractional Owner" style="rounded=1;whiteSpace=wrap;html=1;" vertex="1" parent="WIyWlLk6GJQsqaUBKTNV-1">
          <mxGeometry x="95" y="520" width="70" height="40" as="geometry" />
        </mxCell>
        <mxCell id="x0MqajVazXIa3QFRcniY-19" style="edgeStyle=orthogonalEdgeStyle;rounded=0;orthogonalLoop=1;jettySize=auto;html=1;exitX=0.5;exitY=1;exitDx=0;exitDy=0;entryX=0.5;entryY=0;entryDx=0;entryDy=0;endArrow=block;endFill=0;" edge="1" parent="WIyWlLk6GJQsqaUBKTNV-1" source="x0MqajVazXIa3QFRcniY-15" target="x0MqajVazXIa3QFRcniY-14">
          <mxGeometry relative="1" as="geometry" />
        </mxCell>
        <mxCell id="x0MqajVazXIa3QFRcniY-21" style="edgeStyle=orthogonalEdgeStyle;rounded=0;orthogonalLoop=1;jettySize=auto;html=1;exitX=0.5;exitY=1;exitDx=0;exitDy=0;entryX=0.5;entryY=0;entryDx=0;entryDy=0;endArrow=block;endFill=0;" edge="1" parent="WIyWlLk6GJQsqaUBKTNV-1" source="x0MqajVazXIa3QFRcniY-15" target="x0MqajVazXIa3QFRcniY-16">
          <mxGeometry relative="1" as="geometry" />
        </mxCell>
        <mxCell id="x0MqajVazXIa3QFRcniY-23" style="edgeStyle=orthogonalEdgeStyle;rounded=0;orthogonalLoop=1;jettySize=auto;html=1;exitX=0.5;exitY=1;exitDx=0;exitDy=0;entryX=0.5;entryY=0;entryDx=0;entryDy=0;endArrow=block;endFill=0;" edge="1" parent="WIyWlLk6GJQsqaUBKTNV-1" source="x0MqajVazXIa3QFRcniY-15" target="x0MqajVazXIa3QFRcniY-17">
          <mxGeometry relative="1" as="geometry" />
        </mxCell>
        <UserObject label="Fractional Owners get ERC-20" placeholders="1" name="Variable" id="x0MqajVazXIa3QFRcniY-15">
          <mxCell style="text;html=1;strokeColor=none;fillColor=none;align=center;verticalAlign=middle;whiteSpace=wrap;overflow=hidden;" vertex="1" parent="WIyWlLk6GJQsqaUBKTNV-1">
            <mxGeometry x="100" y="420" width="260" height="20" as="geometry" />
          </mxCell>
        </UserObject>
        <mxCell id="x0MqajVazXIa3QFRcniY-49" value="" style="edgeStyle=orthogonalEdgeStyle;rounded=0;orthogonalLoop=1;jettySize=auto;html=1;endArrow=block;endFill=0;" edge="1" parent="WIyWlLk6GJQsqaUBKTNV-1" source="x0MqajVazXIa3QFRcniY-16" target="x0MqajVazXIa3QFRcniY-44">
          <mxGeometry relative="1" as="geometry" />
        </mxCell>
        <mxCell id="x0MqajVazXIa3QFRcniY-16" value="Fractional Owner" style="rounded=1;whiteSpace=wrap;html=1;" vertex="1" parent="WIyWlLk6GJQsqaUBKTNV-1">
          <mxGeometry x="195" y="520" width="70" height="40" as="geometry" />
        </mxCell>
        <mxCell id="x0MqajVazXIa3QFRcniY-50" value="" style="edgeStyle=orthogonalEdgeStyle;rounded=0;orthogonalLoop=1;jettySize=auto;html=1;endArrow=block;endFill=0;" edge="1" parent="WIyWlLk6GJQsqaUBKTNV-1" source="x0MqajVazXIa3QFRcniY-17" target="x0MqajVazXIa3QFRcniY-44">
          <mxGeometry relative="1" as="geometry" />
        </mxCell>
        <mxCell id="x0MqajVazXIa3QFRcniY-17" value="Fractional Owner" style="rounded=1;whiteSpace=wrap;html=1;" vertex="1" parent="WIyWlLk6GJQsqaUBKTNV-1">
          <mxGeometry x="295" y="520" width="70" height="40" as="geometry" />
        </mxCell>
        <mxCell id="x0MqajVazXIa3QFRcniY-39" value="&lt;table border=&quot;1&quot; width=&quot;100%&quot; cellpadding=&quot;4&quot; style=&quot;width: 100% ; height: 100% ; border-collapse: collapse&quot;&gt;&lt;tbody&gt;&lt;tr&gt;&lt;th align=&quot;center&quot;&gt;Meta Data&lt;/th&gt;&lt;/tr&gt;&lt;tr&gt;&lt;td align=&quot;center&quot;&gt;House Meta Data&lt;br&gt;Source of Income, tenants, etc?&lt;br&gt;Property taxes&lt;br&gt;Governance&lt;br&gt;Time Weighted Re-Sale&lt;/td&gt;&lt;/tr&gt;&lt;tr&gt;&lt;td align=&quot;center&quot;&gt;Cost of each fraction?&lt;br&gt;How Many Fractional Pieces?&lt;br&gt;&lt;/td&gt;&lt;/tr&gt;&lt;/tbody&gt;&lt;/table&gt;" style="text;html=1;strokeColor=none;fillColor=none;overflow=fill;" vertex="1" parent="WIyWlLk6GJQsqaUBKTNV-1">
          <mxGeometry x="600" y="10" width="210" height="150" as="geometry" />
        </mxCell>
        <mxCell id="x0MqajVazXIa3QFRcniY-42" value="RESALE" style="text;strokeColor=#b85450;fillColor=#f8cecc;html=1;fontSize=24;fontStyle=1;verticalAlign=middle;align=center;" vertex="1" parent="WIyWlLk6GJQsqaUBKTNV-1">
          <mxGeometry x="380" y="520" width="230" height="40" as="geometry" />
        </mxCell>
        <mxCell id="x0MqajVazXIa3QFRcniY-44" value="Time Weighted resale process.&lt;br&gt;There must be a buyer for the fraction.&lt;br&gt;User can set resale value.&lt;br&gt;ERC-20 Transfer&amp;nbsp;&amp;nbsp;" style="rounded=0;whiteSpace=wrap;html=1;" vertex="1" parent="WIyWlLk6GJQsqaUBKTNV-1">
          <mxGeometry x="100" y="610" width="540" height="70" as="geometry" />
        </mxCell>
      </root>
    </mxGraphModel>
  </diagram>
</mxfile>
